<svg viewBox="0 0 434.1 223.8" xmlns="http://www.w3.org/2000/svg"><g fill="none" stroke="#121212" stroke-width="1.5" stroke-linecap="round" stroke-linejoin="round" stroke-miterlimit="10"><path d="M4 4l78.4 26.8 31.4 62-19.6 92.9L4 220.8z"/><path d="M113.8 92.8L4 62.8l78.4-32M4 62.8l90.2 122.9"/></g><g fill="none" stroke="#121212" stroke-width=".5" stroke-linecap="round" stroke-linejoin="round" stroke-miterlimit="10"><path d="M82.4 30.8L64.1 197.4M4 220.8l109.8-128L4 4l45.1 199.2"/></g><g fill="#121212"><circle class="st2" cx="4" cy="220.8" r="3"/><circle class="st2" cx="4" cy="62.8" r="3.5"/><circle class="st2" cx="4" cy="4" r="4"/><circle class="st2" cx="82.4" cy="30.8" r="3"/><circle class="st2" cx="113.8" cy="92.8" r="3.5"/><circle class="st2" cx="94.2" cy="185.7" r="4"/><path class="st2" d="M143.9 76.4h2v72h-2zM171.1 148.4v-72h30.3v2h-28.2v33h28.2v2h-28.2v35zM222.9 148.4v-72h30.4v2H225v33h28.3v2H225v35zM274.8 148.4v-72h34.9v2h-32.9v33h32.9v2h-32.9v33h32.9v2zM368.4 148.4l-16.5-25.7h-15.5v25.7h-2v-72h18.3c5.4.7 10 3 13.7 6.8 4.5 4.5 6.8 10 6.8 16.3 0 6.4-2.3 11.9-6.8 16.4-3.1 3.1-6.8 5.2-10.8 6.2l-1.5.4 16.9 26h-2.6v-.1zm-32-27.8h13.7c5.8 0 10.8-2.1 14.9-6.2s6.2-9.1 6.2-15c0-5.8-2.1-10.8-6.2-14.9s-9.1-6.1-14.9-6.1h-13.7v42.2zM413 149.3c-5.8 0-10.7-2.1-14.8-6.2-3.1-3-5-6.6-5.7-10.5l1.8-.7c.7 3.7 2.4 7 5.3 9.8 3.7 3.7 8.2 5.6 13.4 5.6s9.7-1.9 13.4-5.6 5.6-8.2 5.6-13.4-1.9-9.7-5.6-13.3c-3.2-3.2-7.1-5.7-11.6-7.6-5.2-1.7-9.2-4.1-12.2-7-2.9-2.9-4.3-6.3-4.3-10.4 0-4 1.4-7.4 4.3-10.3s6.3-4.3 10.4-4.3c4 0 7.4 1.4 10.4 4.3 1.3 1.3 2.2 2.6 2.9 4.1l-1.8.7c-.6-1.3-1.5-2.4-2.5-3.5-2.4-2.4-5.4-3.7-8.9-3.7s-6.5 1.2-8.9 3.7c-2.5 2.4-3.7 5.4-3.7 8.9s1.2 6.5 3.7 8.9c2.2 2.2 5.2 4.1 9 5.9h.2c5.8 1.9 10.7 4.8 14.6 8.7 4 4 6.1 9 6.1 14.7 0 5.8-2.1 10.7-6.1 14.8-4.3 4.3-9.2 6.4-15 6.4z"/></g></svg>
